<svg data-name="Layer 1" xmlns="http://www.w3.org/2000/svg" viewBox="0 0 44.18 53.28"><path d="M37.04 3.4V0H7.4v3.4h13.12v.83a22.06 22.06 0 00-8.47 41.66l-5 5 2.4 2.4 6-6a21.82 21.82 0 006.65 1 22.07 22.07 0 006.86-1.06l6.06 6 2.4-2.4-5.08-5.08a22.07 22.07 0 00-8.38-41.51V3.4zm3.74 22.84A18.69 18.69 0 1122.09 7.55a18.71 18.71 0 0118.69 18.69z"/><path d="M20.46 11.77v14.47a1.71 1.71 0 00.5 1.2 1.69 1.69 0 001.2.49 1.67 1.67 0 001.19-.49 1.69 1.69 0 00.51-1.21V11.77zM6.61 24.58h3.38v3.4H6.61zm27.59 0h3.38v3.4H34.2zM9.527 17.038l2.296-2.508 2.493 2.282-2.296 2.508zm20.378 18.621l2.294-2.51 2.494 2.282-2.295 2.509zm-9.475 2.685l3.4-.006.006 3.38-3.4.006zm-10.027-1.832l2.281-2.495 2.51 2.295-2.282 2.494zm18.61-20.362l2.28-2.494 2.51 2.293-2.28 2.495z"/></svg>