<svg id="Layer_2" data-name="Layer 2" xmlns="http://www.w3.org/2000/svg" viewBox="0 0 191.14 37.61"><defs><style>.cls-2{fill:#f06351}</style></defs><path d="M6.07 20.72v-2.26a143.26 143.26 0 0120.17-1.33c0 .6 0 1.21-.06 1.82a25.52 25.52 0 016-1.82A16.67 16.67 0 00.19 20.39zm21.17 3.51c-1.16 1.28-1.39 1.2-1.39 3.45v9.18A16.64 16.64 0 0033.32 23a17.3 17.3 0 00-.32-3.1 33.11 33.11 0 00-5.76 4.33zM6.36 25.72s-3.79-1.44-5.19-1.83A8.54 8.54 0 000 23.61a16.65 16.65 0 008.68 14z" fill="#fdc305"/><path class="cls-2" d="M26.29 17.12A89.8 89.8 0 0024.89.65S24.75-.64 24 .41a14.22 14.22 0 00-1.2 3.94 70.34 70.34 0 00-12.77.34C9.24 2 7.85.75 7.18 1s-.72 3.31-.72 3.31l-.33 14.1a143.22 143.22 0 0120.16-1.29z"/><path d="M12.41 14c0-.09 1 .68 1.41.92s.61.42.61.59-.27.34-.63.34-.91-.12-1-.27h1.23A8.34 8.34 0 0112.41 14zm7.48.11l-1.09 1.33c0 .06-.17.35.18.3a7.35 7.35 0 001.22-.29c.11 0 .07-.19-.11-.17s-.69.05-1 .11l.84-1.26s.07-.13-.04-.02zm-3.14 6.09a2.3 2.3 0 001.09-1c.28-.65 0-.91-.44-1a2.43 2.43 0 00-1.74.34c-.39.36-.34.72-.05 1a5.34 5.34 0 001.14.66z"/><path class="cls-2" d="M16.35 21.45a1.92 1.92 0 01-.46.6 1.73 1.73 0 01-1 .38 2.15 2.15 0 01-1.47-.43 2.3 2.3 0 01-.53-.44 1.07 1.07 0 00-.36-.26s.75 4.1 2.57 4.75 2.14-.75 2.2-1.13a5.61 5.61 0 00-.82-3.23c-.02-.31-.03-.11-.13-.24z"/><path d="M14.71 22.59a3.44 3.44 0 01-2.33-1.42.14.14 0 010-.2.14.14 0 01.2 0 3.26 3.26 0 002.11 1.3 2.09 2.09 0 001.63-1l.14-.19.1.21s.37.76 1 .8 1.05-.41 1.61-1.28a.14.14 0 01.2 0 .15.15 0 01.05.2c-.64 1-1.27 1.44-1.88 1.4a1.55 1.55 0 01-1.12-.76 2.26 2.26 0 01-1.71.94z"/><path class="cls-2" d="M26.24 18.92a58.63 58.63 0 00-5.07 5.19A31.63 31.63 0 0115.88 29c-.22-.53-1.62-1.51-1.62-1.51s-3.13-2.14-5.18-3.82a34.13 34.13 0 01-3.13-3l-2-.11a22.57 22.57 0 0012 8.8c.86-.14 3.27-1.86 5.07-3.26a58.13 58.13 0 005.94-5.89 6.15 6.15 0 001.14-2c-1.1.39-1.86.71-1.86.71z"/><path d="M91.87 29.3a6.76 6.76 0 01-1.23-4.36V18.6a6.86 6.86 0 011.21-4.39c.81-1 2.19-1.49 4.15-1.49s3.19.44 4 1.32a5.52 5.52 0 011.17 3.76v1.52h-3.89v-1.76a4.46 4.46 0 00-.22-1.56c-.15-.36-.5-.54-1.06-.54a1.08 1.08 0 00-1.1.57 3.84 3.84 0 00-.27 1.6v8.27a3.54 3.54 0 00.28 1.59 1.1 1.1 0 001.09.56 1 1 0 001-.56 4.35 4.35 0 00.23-1.59v-1.85h3.86v1.52a5.8 5.8 0 01-1.09 3.86c-.78.92-2.1 1.38-4 1.38s-3.32-.51-4.13-1.51zM105.84 13h4.49l3.34 17.58H110l-.6-3.71h-2.62l-.62 3.71h-3.73zm3.22 11.55l-1-6.86-1 6.86zm7.33-8.7h-2.69V13h9.3v2.89h-2.67v14.65h-4zM130.17 13h6.93v1.82h-4.44v5.78h3.6v1.74h-3.6v6.45h4.48v1.75h-7zm8.96 0h1.7l5.07 11.68V13h2.1v17.54h-1.59l-5.13-12v12h-2.12zm11.32 0h6.93v1.82h-4.44v5.78h3.6v1.74h-3.6v6.45h4.48v1.75h-7zm8.96 0H163a6 6 0 014 1.09 4.51 4.51 0 011.27 3.58c0 2.26-.73 3.62-2.2 4.1l2.53 8.81h-2.4l-2.34-8.25h-1.96v8.25h-2.49zm3.44 7.58a3.38 3.38 0 002.3-.63 3 3 0 00.7-2.28 4.9 4.9 0 00-.24-1.71 1.7 1.7 0 00-.86-.91 4.32 4.32 0 00-1.75-.29h-1.1v5.82zm8.6 8.67a7.67 7.67 0 01-1.08-4.48v-5.88a11.25 11.25 0 01.43-3.36 3.79 3.79 0 011.48-2 5.11 5.11 0 012.88-.7 4.56 4.56 0 013.56 1.17 5.79 5.79 0 011.09 3.89v.65h-2.34V18a9.54 9.54 0 00-.15-1.94 1.66 1.66 0 00-.65-1 2.49 2.49 0 00-1.47-.35 2.22 2.22 0 00-1.54.46 2.16 2.16 0 00-.65 1.25 11.58 11.58 0 00-.15 2.09V25a6.25 6.25 0 00.5 2.9 2 2 0 001.91.88 2 2 0 001.9-1 6.65 6.65 0 00.52-3.06v-1.14h-2.27v-1.74h4.52v8.7h-1.56l-.25-2a3.13 3.13 0 01-3.13 2.22 4 4 0 01-3.55-1.51zm13.47-4.91L181.07 13h2.31l2.73 8.49L188.8 13h2.34l-3.83 11.38v6.2h-2.39z" fill="#111"/></svg>